<svg xmlns="http://www.w3.org/2000/svg" xmlns:xlink="http://www.w3.org/1999/xlink" width="500" zoomAndPan="magnify" viewBox="0 0 375 374.999991" height="500" preserveAspectRatio="xMidYMid meet" version="1.0"><defs><g><g id="id1"/></g><clipPath id="id2"><path d="M 29 185 L 202.496094 185 L 202.496094 190 L 29 190 Z M 29 185 " clip-rule="nonzero"/></clipPath><clipPath id="id3"><path d="M 11.246094 168 L 40 168 L 40 207 L 11.246094 207 Z M 11.246094 168 " clip-rule="nonzero"/></clipPath><clipPath id="id4"><path d="M 46 100.125 L 144 100.125 L 144 274.875 L 46 274.875 Z M 46 100.125 " clip-rule="nonzero"/></clipPath></defs><path fill="rgb(94.119263%, 27.449036%, 14.509583%)" d="M 30.410156 187.5 L 37.941406 204.214844 L 13.417969 187.5 L 37.941406 170.78125 L 30.410156 187.5 " fill-opacity="1" fill-rule="nonzero"/><g clip-path="url(#id2)"><path fill="rgb(27.839661%, 21.958923%, 11.369324%)" d="M 200.359375 185.5625 L 31.863281 185.5625 C 29.363281 185.5625 29.363281 189.4375 31.863281 189.4375 L 200.359375 189.4375 C 202.859375 189.4375 202.859375 185.5625 200.359375 185.5625 " fill-opacity="1" fill-rule="nonzero"/></g><path fill="rgb(40.779114%, 65.098572%, 67.83905%)" d="M 133.535156 272.964844 C 136.167969 272.964844 138.769531 272.835938 141.347656 272.605469 C 97.84375 268.65625 63.761719 232.066406 63.761719 187.5 C 63.761719 142.933594 97.84375 106.34375 141.347656 102.394531 C 138.769531 102.160156 136.167969 102.035156 133.535156 102.035156 C 86.375 102.035156 48.140625 140.300781 48.140625 187.5 C 48.140625 234.699219 86.375 272.964844 133.535156 272.964844 " fill-opacity="1" fill-rule="nonzero"/><path fill="rgb(27.839661%, 21.958923%, 11.369324%)" d="M 133.140625 271.066406 L 133.140625 103.9375 C 133.140625 101.4375 129.269531 101.4375 129.269531 103.9375 L 129.269531 271.066406 C 129.269531 273.566406 133.140625 273.566406 133.140625 271.066406 " fill-opacity="1" fill-rule="nonzero"/><g clip-path="url(#id3)"><path fill="rgb(27.839661%, 21.958923%, 11.369324%)" d="M 28.738281 188.476562 C 31.246094 194.050781 33.761719 199.621094 36.269531 205.195312 C 37.152344 204.3125 38.03125 203.429688 38.921875 202.542969 C 30.742188 196.972656 22.570312 191.394531 14.398438 185.824219 L 14.398438 189.175781 C 22.570312 183.601562 30.742188 178.03125 38.921875 172.457031 C 38.03125 171.570312 37.152344 170.6875 36.269531 169.804688 C 33.761719 175.375 31.246094 180.949219 28.738281 186.523438 C 27.722656 188.78125 31.058594 190.753906 32.082031 188.476562 C 34.59375 182.90625 37.101562 177.332031 39.613281 171.757812 C 40.328125 170.164062 38.734375 167.898438 36.964844 169.105469 C 28.792969 174.679688 20.617188 180.25 12.441406 185.824219 C 11.199219 186.675781 11.199219 188.328125 12.441406 189.175781 C 20.617188 194.746094 28.792969 200.320312 36.964844 205.890625 C 38.734375 207.097656 40.328125 204.832031 39.613281 203.238281 C 37.101562 197.667969 34.59375 192.09375 32.082031 186.523438 C 31.058594 184.242188 27.722656 186.21875 28.738281 188.476562 " fill-opacity="1" fill-rule="nonzero"/></g><path fill="rgb(27.839661%, 21.958923%, 11.369324%)" d="M 182.113281 197.261719 C 177.949219 193.546875 173.785156 189.839844 169.621094 186.128906 L 169.621094 188.867188 C 173.785156 185.164062 177.949219 181.453125 182.113281 177.742188 C 183.980469 176.074219 181.230469 173.34375 179.371094 175.003906 C 175.210938 178.707031 171.046875 182.417969 166.882812 186.128906 C 166.125 186.800781 166.125 188.199219 166.882812 188.867188 C 171.046875 192.578125 175.210938 196.292969 179.371094 200.003906 C 181.230469 201.65625 183.980469 198.925781 182.113281 197.261719 " fill-opacity="1" fill-rule="nonzero"/><path fill="rgb(27.839661%, 21.958923%, 11.369324%)" d="M 194.605469 197.261719 C 190.441406 193.546875 186.273438 189.839844 182.113281 186.128906 L 182.113281 188.867188 C 186.273438 185.164062 190.441406 181.453125 194.605469 177.742188 C 196.472656 176.074219 193.722656 173.34375 191.863281 175.003906 C 187.699219 178.707031 183.535156 182.417969 179.371094 186.128906 C 178.617188 186.800781 178.617188 188.199219 179.371094 188.867188 C 183.535156 192.578125 187.699219 196.292969 191.863281 200.003906 C 193.722656 201.65625 196.472656 198.925781 194.605469 197.261719 " fill-opacity="1" fill-rule="nonzero"/><path fill="rgb(27.839661%, 21.958923%, 11.369324%)" d="M 76.453125 253.640625 C 81.191406 257.699219 86.300781 261.265625 91.765625 264.273438 C 93.957031 265.480469 95.910156 262.132812 93.722656 260.929688 C 88.542969 258.078125 83.683594 254.742188 79.191406 250.898438 C 77.304688 249.285156 74.550781 252.015625 76.453125 253.640625 " fill-opacity="1" fill-rule="nonzero"/><g clip-path="url(#id4)"><path fill="rgb(27.839661%, 21.958923%, 11.369324%)" d="M 98.625 267.625 C 112.109375 273.410156 126.714844 275.8125 141.347656 274.542969 C 143.84375 274.324219 143.828125 270.898438 141.347656 270.664062 C 123.9375 269.03125 107.355469 261.859375 94.191406 250.355469 C 81.152344 238.960938 71.976562 223.601562 67.933594 206.777344 C 63.757812 189.402344 65.445312 170.679688 72.539062 154.292969 C 79.371094 138.507812 91.128906 125.125 105.765625 116.140625 C 116.519531 109.539062 128.792969 105.511719 141.347656 104.328125 C 143.828125 104.097656 143.84375 100.675781 141.347656 100.453125 C 123.175781 98.875 104.894531 102.957031 89.164062 112.203125 C 74.5625 120.78125 62.644531 133.757812 55.148438 148.933594 C 47.539062 164.355469 44.75 181.925781 46.96875 198.960938 C 49.4375 217.914062 58.25 235.609375 71.664062 249.183594 C 73.421875 250.960938 76.160156 248.21875 74.402344 246.441406 C 59.84375 231.707031 51.164062 212.074219 50.164062 191.363281 C 49.308594 173.613281 54.296875 155.96875 64.082031 141.171875 C 80.941406 115.664062 111.058594 101.703125 141.347656 104.332031 L 141.347656 100.453125 C 123.878906 102.097656 107.414062 108.851562 93.796875 119.914062 C 80.445312 130.761719 70.613281 145.679688 65.570312 162.101562 C 55.074219 196.285156 67.355469 234.390625 95.398438 256.359375 C 108.636719 266.730469 124.625 272.972656 141.347656 274.542969 L 141.347656 270.664062 C 127.441406 271.875 113.421875 269.789062 100.578125 264.277344 C 98.308594 263.300781 96.335938 266.640625 98.625 267.621094 " fill-opacity="1" fill-rule="nonzero"/></g><g fill="rgb(94.119263%, 27.449036%, 14.509583%)" fill-opacity="1"><g transform="translate(133.467522, 249.133732)"><g><path d="M 39.03125 -3.5 L 30.125 1.171875 C 28.957031 1.117188 27.738281 0.597656 26.46875 -0.390625 C 25.207031 -1.390625 24.210938 -2.617188 23.484375 -4.078125 L 15.53125 0.953125 L 13.28125 1.09375 C 10.21875 1.09375 7.6875 0.195312 5.6875 -1.59375 C 3.695312 -3.394531 2.703125 -5.5625 2.703125 -8.09375 C 2.703125 -11.59375 4.597656 -14.367188 8.390625 -16.421875 L 22.328125 -16.78125 L 22.328125 -23.265625 C 22.328125 -27.160156 21.179688 -29.644531 18.890625 -30.71875 C 16.648438 -30.570312 14.828125 -30.253906 13.421875 -29.765625 L 12.109375 -21.890625 L 5.984375 -21.671875 C 4.910156 -24.335938 4.375 -27.28125 4.375 -30.5 L 4.453125 -31.953125 C 7.128906 -33.117188 10.335938 -34.148438 14.078125 -35.046875 C 17.828125 -35.953125 20.671875 -36.40625 22.609375 -36.40625 C 24.410156 -36.40625 26.175781 -35.914062 27.90625 -34.9375 C 29.632812 -33.96875 31.03125 -32.707031 32.09375 -31.15625 C 32.632812 -30.226562 32.925781 -28.378906 32.96875 -25.609375 L 32.96875 -8.09375 C 32.96875 -6.925781 33.578125 -6.34375 34.796875 -6.34375 L 38.375 -6.78125 Z M 14.8125 -5.40625 C 16.757812 -5.445312 19.265625 -6.050781 22.328125 -7.21875 L 22.328125 -12.46875 L 20.5 -12.546875 C 15.6875 -12.546875 13.28125 -11.234375 13.28125 -8.609375 C 13.28125 -7.296875 13.789062 -6.226562 14.8125 -5.40625 Z M 14.8125 -5.40625 "/></g></g></g><g fill="rgb(94.119263%, 27.449036%, 14.509583%)" fill-opacity="1"><g transform="translate(173.148407, 249.133732)"><g><path d="M 31.375 -12.625 L 35.375 -11.890625 C 35.1875 -7.460938 34.4375 -3.132812 33.125 1.09375 L 8.90625 -1.53125 L 5.40625 1.234375 L 1.390625 -2.109375 L 21.953125 -30.125 L 11.453125 -28.96875 L 9.1875 -21.59375 L 3.5 -21.59375 C 3.007812 -24.164062 2.765625 -26.9375 2.765625 -29.90625 L 3.0625 -34.65625 L 29.84375 -34.65625 L 32.25 -36.25 L 35.75 -32.90625 L 16.125 -6.421875 L 28.96875 -7.4375 Z M 31.375 -12.625 "/></g></g></g><g fill="rgb(94.119263%, 27.449036%, 14.509583%)" fill-opacity="1"><g transform="translate(210.276293, 249.133732)"><g><path d="M 39.03125 -3.5 L 30.125 1.171875 C 28.957031 1.117188 27.738281 0.597656 26.46875 -0.390625 C 25.207031 -1.390625 24.210938 -2.617188 23.484375 -4.078125 L 15.53125 0.953125 L 13.28125 1.09375 C 10.21875 1.09375 7.6875 0.195312 5.6875 -1.59375 C 3.695312 -3.394531 2.703125 -5.5625 2.703125 -8.09375 C 2.703125 -11.59375 4.597656 -14.367188 8.390625 -16.421875 L 22.328125 -16.78125 L 22.328125 -23.265625 C 22.328125 -27.160156 21.179688 -29.644531 18.890625 -30.71875 C 16.648438 -30.570312 14.828125 -30.253906 13.421875 -29.765625 L 12.109375 -21.890625 L 5.984375 -21.671875 C 4.910156 -24.335938 4.375 -27.28125 4.375 -30.5 L 4.453125 -31.953125 C 7.128906 -33.117188 10.335938 -34.148438 14.078125 -35.046875 C 17.828125 -35.953125 20.671875 -36.40625 22.609375 -36.40625 C 24.410156 -36.40625 26.175781 -35.914062 27.90625 -34.9375 C 29.632812 -33.96875 31.03125 -32.707031 32.09375 -31.15625 C 32.632812 -30.226562 32.925781 -28.378906 32.96875 -25.609375 L 32.96875 -8.09375 C 32.96875 -6.925781 33.578125 -6.34375 34.796875 -6.34375 L 38.375 -6.78125 Z M 14.8125 -5.40625 C 16.757812 -5.445312 19.265625 -6.050781 22.328125 -7.21875 L 22.328125 -12.46875 L 20.5 -12.546875 C 15.6875 -12.546875 13.28125 -11.234375 13.28125 -8.609375 C 13.28125 -7.296875 13.789062 -6.226562 14.8125 -5.40625 Z M 14.8125 -5.40625 "/></g></g></g><g fill="rgb(94.119263%, 27.449036%, 14.509583%)" fill-opacity="1"><g transform="translate(249.957178, 249.133732)"><g><path d="M 41.515625 -3.5 L 32.53125 1.171875 C 31.320312 1.117188 30.046875 0.523438 28.703125 -0.609375 C 27.367188 -1.753906 26.359375 -3.128906 25.671875 -4.734375 L 17.4375 1.171875 C 12.71875 1.210938 8.800781 -0.5 5.6875 -3.96875 C 2.570312 -7.445312 1.015625 -11.816406 1.015625 -17.078125 C 1.015625 -22.566406 2.8125 -27.109375 6.40625 -30.703125 C 10.007812 -34.304688 14.585938 -36.109375 20.140625 -36.109375 C 21.691406 -36.109375 23.242188 -35.914062 24.796875 -35.53125 L 24.796875 -47.0625 L 19.328125 -47.640625 L 18.828125 -51.140625 C 23.003906 -52.742188 27.332031 -53.59375 31.8125 -53.6875 L 35.375 -50.40625 L 35.375 -8.3125 C 35.375 -7 35.984375 -6.34375 37.203125 -6.34375 L 40.859375 -6.78125 Z M 12.109375 -18.171875 C 12.109375 -14.953125 12.828125 -12.285156 14.265625 -10.171875 C 15.703125 -8.054688 17.679688 -7 20.203125 -7 C 21.515625 -7 23.046875 -7.363281 24.796875 -8.09375 L 24.796875 -28.3125 C 22.460938 -29.476562 20.15625 -30.0625 17.875 -30.0625 L 16.5625 -29.984375 C 13.59375 -27.210938 12.109375 -23.273438 12.109375 -18.171875 Z M 12.109375 -18.171875 "/></g></g></g><g fill="rgb(94.119263%, 27.449036%, 14.509583%)" fill-opacity="1"><g transform="translate(291.899285, 249.133732)"><g><path d="M 1.015625 -17.578125 C 1.015625 -23.078125 2.703125 -27.550781 6.078125 -31 C 9.460938 -34.457031 13.6875 -36.1875 18.75 -36.1875 C 23.8125 -36.1875 27.984375 -34.421875 31.265625 -30.890625 C 34.546875 -27.367188 36.1875 -22.8125 36.1875 -17.21875 C 36.1875 -11.570312 34.566406 -7.046875 31.328125 -3.640625 C 28.097656 -0.242188 23.976562 1.453125 18.96875 1.453125 C 13.863281 1.453125 9.59375 -0.34375 6.15625 -3.9375 C 2.726562 -7.539062 1.015625 -12.085938 1.015625 -17.578125 Z M 21.953125 -4.890625 C 24.242188 -6.492188 25.390625 -10.3125 25.390625 -16.34375 C 25.390625 -20.332031 24.789062 -23.601562 23.59375 -26.15625 C 22.40625 -28.707031 20.597656 -29.984375 18.171875 -29.984375 C 16.710938 -29.984375 15.46875 -29.644531 14.4375 -28.96875 C 12.6875 -26.625 11.8125 -22.878906 11.8125 -17.734375 C 11.8125 -13.835938 12.441406 -10.660156 13.703125 -8.203125 C 14.972656 -5.742188 16.898438 -4.515625 19.484375 -4.515625 C 20.359375 -4.515625 21.179688 -4.640625 21.953125 -4.890625 Z M 21.953125 -4.890625 "/></g></g></g><g fill="rgb(94.119263%, 27.449036%, 14.509583%)" fill-opacity="1"><g transform="translate(329.464829, 249.133732)"><g><path d="M 24.515625 -35.015625 C 25.679688 -35.453125 26.894531 -35.671875 28.15625 -35.671875 C 30.6875 -35.671875 32.726562 -34.941406 34.28125 -33.484375 C 34.039062 -28.128906 33.144531 -23.535156 31.59375 -19.703125 L 26.046875 -19.703125 L 24.578125 -27.875 C 21.910156 -25.875 19.457031 -23.515625 17.21875 -20.796875 L 17.21875 -6.0625 C 20.625 -5.375 23.25 -4.546875 25.09375 -3.578125 L 24.796875 0 L 1.453125 0 L 1.234375 -2.484375 C 2.597656 -3.253906 4.398438 -4.03125 6.640625 -4.8125 L 6.640625 -29.328125 L 1.171875 -29.984375 L 0.65625 -33.484375 C 4.84375 -35.085938 9.171875 -35.9375 13.640625 -36.03125 L 17.21875 -32.828125 L 17.21875 -26.84375 Z M 24.515625 -35.015625 "/></g></g></g></svg>