<svg xmlns="http://www.w3.org/2000/svg" xmlns:xlink="http://www.w3.org/1999/xlink" width="500" zoomAndPan="magnify" viewBox="0 0 375 374.999991" height="500" preserveAspectRatio="xMidYMid meet" version="1.0"><defs><clipPath id="id1"><path d="M 233.242188 180 L 374.992188 180 L 374.992188 189 L 233.242188 189 Z M 233.242188 180 " clip-rule="nonzero"/></clipPath><clipPath id="id2"><path d="M 233.242188 144.132812 L 249 144.132812 L 249 222.132812 L 233.242188 222.132812 Z M 233.242188 144.132812 " clip-rule="nonzero"/></clipPath><clipPath id="id3"><path d="M 233.242188 144.132812 L 253 144.132812 L 253 222.132812 L 233.242188 222.132812 Z M 233.242188 144.132812 " clip-rule="nonzero"/></clipPath><clipPath id="id4"><path d="M 76 181 L 315.257812 181 L 315.257812 190 L 76 190 Z M 76 181 " clip-rule="nonzero"/></clipPath><clipPath id="id5"><path d="M 37.757812 145 L 98 145 L 98 225 L 37.757812 225 Z M 37.757812 145 " clip-rule="nonzero"/></clipPath><clipPath id="id6"><path d="M 110 1.886719 L 315 1.886719 L 315 368.636719 L 110 368.636719 Z M 110 1.886719 " clip-rule="nonzero"/></clipPath></defs><g clip-path="url(#id1)"><path fill="rgb(94.119263%, 27.449036%, 14.509583%)" d="M 370.59375 180.96875 L 23.011719 180.96875 C 17.859375 180.96875 17.859375 188.972656 23.011719 188.972656 L 370.59375 188.972656 C 375.75 188.972656 375.75 180.96875 370.59375 180.96875 " fill-opacity="1" fill-rule="nonzero"/></g><g clip-path="url(#id2)"><path fill="rgb(94.119263%, 27.449036%, 14.509583%)" d="M 232.742188 361.398438 C 238.175781 361.398438 243.542969 361.136719 248.855469 360.65625 C 159.121094 352.503906 88.816406 276.96875 88.816406 184.96875 C 88.816406 92.96875 159.121094 17.433594 248.855469 9.277344 C 243.542969 8.796875 238.175781 8.539062 232.742188 8.539062 C 135.464844 8.539062 56.59375 87.527344 56.59375 184.96875 C 56.59375 282.40625 135.464844 361.398438 232.742188 361.398438 " fill-opacity="1" fill-rule="nonzero"/></g><path fill="rgb(94.119263%, 27.449036%, 14.509583%)" d="M 332.949219 205.121094 C 324.359375 197.453125 315.769531 189.796875 307.179688 182.136719 L 307.179688 187.792969 C 315.769531 180.144531 324.359375 172.484375 332.949219 164.828125 C 336.804688 161.386719 331.136719 155.742188 327.300781 159.167969 C 318.710938 166.820312 310.121094 174.476562 301.53125 182.136719 C 299.972656 183.53125 299.972656 186.410156 301.53125 187.792969 C 310.121094 195.453125 318.710938 203.121094 327.300781 210.777344 C 331.136719 214.195312 336.804688 208.554688 332.949219 205.121094 " fill-opacity="1" fill-rule="nonzero"/><path fill="rgb(94.119263%, 27.449036%, 14.509583%)" d="M 358.71875 205.121094 C 350.128906 197.453125 341.539062 189.796875 332.949219 182.136719 L 332.949219 187.792969 C 341.539062 180.144531 350.128906 172.484375 358.71875 164.828125 C 362.574219 161.386719 356.902344 155.742188 353.066406 159.167969 C 344.476562 166.820312 335.890625 174.476562 327.300781 182.136719 C 325.742188 183.53125 325.742188 186.410156 327.300781 187.792969 C 335.890625 195.453125 344.476562 203.121094 353.066406 210.777344 C 356.902344 214.195312 362.574219 208.554688 358.71875 205.121094 " fill-opacity="1" fill-rule="nonzero"/><g clip-path="url(#id3)"><path fill="rgb(94.119263%, 27.449036%, 14.509583%)" d="M 160.726562 350.375 C 188.546875 362.320312 218.679688 367.28125 248.855469 364.65625 C 254.011719 364.210938 253.976562 357.136719 248.855469 356.65625 C 212.949219 353.277344 178.738281 338.472656 151.585938 314.722656 C 124.683594 291.203125 105.757812 259.5 97.421875 224.765625 C 88.808594 188.894531 92.285156 150.242188 106.921875 116.414062 C 121.015625 83.828125 145.265625 56.203125 175.460938 37.660156 C 197.640625 24.03125 222.960938 15.714844 248.855469 13.273438 C 253.976562 12.792969 254.011719 5.726562 248.855469 5.273438 C 211.375 2.015625 173.664062 10.441406 141.214844 29.527344 C 111.09375 47.238281 86.507812 74.023438 71.046875 105.355469 C 55.347656 137.191406 49.59375 173.457031 54.171875 208.632812 C 59.261719 247.757812 77.449219 284.28125 105.117188 312.308594 C 108.746094 315.976562 114.394531 310.316406 110.765625 306.644531 C 80.730469 276.230469 62.828125 235.695312 60.765625 192.945312 C 59 156.300781 69.289062 119.875 89.472656 89.328125 C 124.253906 36.667969 186.382812 7.851562 248.855469 13.277344 L 248.855469 5.273438 C 212.820312 8.667969 178.863281 22.609375 150.773438 45.449219 C 123.230469 67.839844 102.945312 98.632812 92.550781 132.535156 C 70.894531 203.101562 96.222656 281.769531 154.070312 327.121094 C 181.382812 348.527344 214.363281 361.414062 248.855469 364.65625 L 248.855469 356.652344 C 220.171875 359.148438 191.257812 354.84375 164.761719 343.464844 C 160.082031 341.453125 156.003906 348.34375 160.726562 350.371094 " fill-opacity="1" fill-rule="nonzero"/></g><path fill="rgb(94.119263%, 27.449036%, 14.509583%)" d="M 77.394531 185.261719 L 93.222656 220.34375 L 41.675781 185.261719 L 93.222656 150.171875 L 77.394531 185.261719 " fill-opacity="1" fill-rule="nonzero"/><g clip-path="url(#id4)"><path fill="rgb(94.119263%, 27.449036%, 14.509583%)" d="M 434.640625 181.195312 L 80.445312 181.195312 C 75.195312 181.195312 75.195312 189.332031 80.445312 189.332031 L 434.640625 189.332031 C 439.890625 189.332031 439.890625 181.195312 434.640625 181.195312 " fill-opacity="1" fill-rule="nonzero"/></g><path fill="rgb(94.119263%, 27.449036%, 14.509583%)" d="M 294.164062 364.628906 C 299.699219 364.628906 305.171875 364.359375 310.585938 363.871094 C 219.144531 355.585938 147.503906 278.792969 147.503906 185.261719 C 147.503906 91.734375 219.144531 14.9375 310.585938 6.648438 C 305.171875 6.160156 299.699219 5.898438 294.164062 5.898438 C 195.035156 5.898438 114.667969 86.199219 114.667969 185.261719 C 114.667969 284.316406 195.035156 364.628906 294.164062 364.628906 " fill-opacity="1" fill-rule="nonzero"/><path fill="rgb(94.119263%, 27.449036%, 14.509583%)" d="M 293.34375 360.644531 L 293.34375 9.886719 C 293.34375 4.636719 285.199219 4.636719 285.199219 9.886719 L 285.199219 360.644531 C 285.199219 365.890625 293.34375 365.890625 293.34375 360.644531 " fill-opacity="1" fill-rule="nonzero"/><g clip-path="url(#id5)"><path fill="rgb(94.119263%, 27.449036%, 14.509583%)" d="M 73.875 187.3125 C 79.152344 199.011719 84.4375 210.703125 89.710938 222.402344 C 91.570312 220.546875 93.417969 218.695312 95.28125 216.832031 C 78.09375 205.140625 60.914062 193.441406 43.734375 181.75 L 43.734375 188.777344 C 60.914062 177.078125 78.09375 165.386719 95.28125 153.6875 C 93.417969 151.832031 91.570312 149.976562 89.710938 148.121094 C 84.4375 159.8125 79.152344 171.511719 73.875 183.214844 C 71.742188 187.949219 78.753906 192.089844 80.910156 187.3125 C 86.1875 175.621094 91.460938 163.921875 96.738281 152.222656 C 98.246094 148.878906 94.890625 144.128906 91.167969 146.660156 C 73.988281 158.359375 56.8125 170.050781 39.625 181.75 C 37.007812 183.53125 37.007812 186.996094 39.625 188.777344 C 56.8125 200.46875 73.988281 212.167969 91.167969 223.859375 C 94.890625 226.390625 98.246094 221.640625 96.738281 218.292969 C 91.460938 206.605469 86.1875 194.902344 80.910156 183.214844 C 78.753906 178.429688 71.742188 182.570312 73.875 187.3125 " fill-opacity="1" fill-rule="nonzero"/></g><path fill="rgb(94.119263%, 27.449036%, 14.509583%)" d="M 174.175781 324.070312 C 184.140625 332.585938 194.882812 340.078125 206.371094 346.390625 C 210.96875 348.925781 215.082031 341.898438 210.480469 339.367188 C 199.597656 333.382812 189.378906 326.386719 179.933594 318.320312 C 175.96875 314.929688 170.179688 320.660156 174.175781 324.070312 " fill-opacity="1" fill-rule="nonzero"/><g clip-path="url(#id6)"><path fill="rgb(94.119263%, 27.449036%, 14.509583%)" d="M 220.78125 353.417969 C 249.132812 365.566406 279.835938 370.609375 310.585938 367.9375 C 315.839844 367.484375 315.804688 360.292969 310.585938 359.804688 C 273.996094 356.371094 239.132812 341.320312 211.464844 317.175781 C 184.054688 293.261719 164.765625 261.03125 156.273438 225.71875 C 147.496094 189.253906 151.039062 149.957031 165.953125 115.566406 C 180.316406 82.4375 205.027344 54.351562 235.792969 35.503906 C 258.398438 21.648438 284.199219 13.195312 310.585938 10.710938 C 315.804688 10.222656 315.839844 3.039062 310.585938 2.578125 C 272.394531 -0.734375 233.964844 7.832031 200.898438 27.234375 C 170.203125 45.242188 145.152344 72.472656 129.394531 104.324219 C 113.398438 136.6875 107.535156 173.558594 112.199219 209.316406 C 117.386719 249.09375 135.917969 286.226562 164.113281 314.71875 C 167.808594 318.449219 173.566406 312.695312 169.871094 308.960938 C 139.265625 278.042969 121.019531 236.832031 118.917969 193.371094 C 117.117188 156.117188 127.605469 119.085938 148.171875 88.03125 C 183.613281 34.496094 246.925781 5.199219 310.585938 10.714844 L 310.585938 2.578125 C 273.867188 6.027344 239.261719 20.199219 210.636719 43.421875 C 182.570312 66.183594 161.898438 97.492188 151.304688 131.953125 C 129.242188 203.699219 155.050781 283.671875 214 329.78125 C 241.828125 351.542969 275.4375 364.640625 310.585938 367.9375 L 310.585938 359.800781 C 281.355469 362.335938 251.890625 357.960938 224.894531 346.394531 C 220.121094 344.347656 215.96875 351.355469 220.78125 353.417969 " fill-opacity="1" fill-rule="nonzero"/></g></svg>