<svg xmlns="http://www.w3.org/2000/svg" xmlns:xlink="http://www.w3.org/1999/xlink" width="500" zoomAndPan="magnify" viewBox="0 0 375 374.999991" height="500" preserveAspectRatio="xMidYMid meet" version="1.0"><defs><clipPath id="id1"><path d="M 7.199219 7 L 367.949219 7 L 367.949219 368 L 7.199219 368 Z M 7.199219 7 " clip-rule="nonzero"/></clipPath></defs><g clip-path="url(#id1)"><path fill="rgb(60, 64, 67)" d="M 367.949219 187.4375 C 367.949219 287.058594 287.214844 367.671875 187.574219 367.671875 C 87.925781 367.664062 7.199219 287.058594 7.199219 187.4375 C 7.199219 87.886719 87.925781 7.195312 187.574219 7.195312 C 287.214844 7.195312 367.949219 87.886719 367.949219 187.4375 Z M 367.949219 187.4375 " fill-opacity="1" fill-rule="nonzero"/></g><path fill="white" d="M 138.445312 105.058594 L 273.71875 240.226562 L 241.828125 272.09375 L 106.554688 136.921875 Z M 138.445312 105.058594 " fill-opacity="1" fill-rule="nonzero"/><path fill="white" d="M 138.464844 272.09375 L 106.570312 240.230469 L 241.824219 105.054688 L 273.710938 136.910156 Z M 138.464844 272.09375 " fill-opacity="1" fill-rule="nonzero"/></svg>